<mxfile host="app.diagrams.net" modified="2023-12-21T14:03:03.830Z" agent="Mozilla/5.0 (X11; Linux x86_64) AppleWebKit/537.36 (KHTML, like Gecko) Chrome/120.0.0.0 Safari/537.36" etag="qn4-jtCDV7gwTXKOovhO" version="22.1.11" type="device">
  <diagram name="Página-1" id="LvAHFW18NVNf_dSYvHjU">
    <mxGraphModel dx="1354" dy="692" grid="1" gridSize="10" guides="1" tooltips="1" connect="1" arrows="1" fold="1" page="1" pageScale="1" pageWidth="827" pageHeight="1169" math="0" shadow="0">
      <root>
        <mxCell id="0" />
        <mxCell id="1" parent="0" />
        <mxCell id="y_4wTvDyR4iK40Hrocq_-9" value="" style="rounded=0;whiteSpace=wrap;html=1;" parent="1" vertex="1">
          <mxGeometry x="240" y="280" width="360" height="250" as="geometry" />
        </mxCell>
        <mxCell id="CmVPIzVfPxpFwujh8veU-5" style="edgeStyle=orthogonalEdgeStyle;rounded=0;orthogonalLoop=1;jettySize=auto;html=1;exitX=1;exitY=0.25;exitDx=0;exitDy=0;entryX=0;entryY=0.25;entryDx=0;entryDy=0;" parent="1" source="CmVPIzVfPxpFwujh8veU-2" target="CmVPIzVfPxpFwujh8veU-4" edge="1">
          <mxGeometry relative="1" as="geometry" />
        </mxCell>
        <mxCell id="CmVPIzVfPxpFwujh8veU-6" value="Criar Checkout" style="edgeLabel;html=1;align=center;verticalAlign=middle;resizable=0;points=[];fontSize=13;" parent="CmVPIzVfPxpFwujh8veU-5" vertex="1" connectable="0">
          <mxGeometry relative="1" as="geometry">
            <mxPoint as="offset" />
          </mxGeometry>
        </mxCell>
        <mxCell id="CmVPIzVfPxpFwujh8veU-10" style="edgeStyle=orthogonalEdgeStyle;rounded=0;orthogonalLoop=1;jettySize=auto;html=1;exitX=0.5;exitY=1;exitDx=0;exitDy=0;entryX=0.5;entryY=0;entryDx=0;entryDy=0;" parent="1" source="CmVPIzVfPxpFwujh8veU-2" target="CmVPIzVfPxpFwujh8veU-9" edge="1">
          <mxGeometry relative="1" as="geometry" />
        </mxCell>
        <mxCell id="CmVPIzVfPxpFwujh8veU-2" value="Finalizar Compra" style="rounded=0;whiteSpace=wrap;html=1;fontSize=14;" parent="1" vertex="1">
          <mxGeometry x="20" y="140" width="120" height="60" as="geometry" />
        </mxCell>
        <mxCell id="CmVPIzVfPxpFwujh8veU-7" style="edgeStyle=orthogonalEdgeStyle;rounded=0;orthogonalLoop=1;jettySize=auto;html=1;exitX=0;exitY=0.75;exitDx=0;exitDy=0;entryX=1;entryY=0.75;entryDx=0;entryDy=0;" parent="1" source="CmVPIzVfPxpFwujh8veU-4" target="CmVPIzVfPxpFwujh8veU-2" edge="1">
          <mxGeometry relative="1" as="geometry" />
        </mxCell>
        <mxCell id="CmVPIzVfPxpFwujh8veU-8" value="Devolver Checkout" style="edgeLabel;html=1;align=center;verticalAlign=middle;resizable=0;points=[];fontSize=13;" parent="CmVPIzVfPxpFwujh8veU-7" vertex="1" connectable="0">
          <mxGeometry relative="1" as="geometry">
            <mxPoint as="offset" />
          </mxGeometry>
        </mxCell>
        <mxCell id="CmVPIzVfPxpFwujh8veU-4" value="Stripe" style="rounded=0;whiteSpace=wrap;html=1;fontSize=14;" parent="1" vertex="1">
          <mxGeometry x="320" y="140" width="120" height="60" as="geometry" />
        </mxCell>
        <mxCell id="CmVPIzVfPxpFwujh8veU-9" value="Direcionar usuário para checkout criado" style="rounded=0;whiteSpace=wrap;html=1;fontSize=14;" parent="1" vertex="1">
          <mxGeometry x="20" y="300" width="120" height="60" as="geometry" />
        </mxCell>
        <mxCell id="CmVPIzVfPxpFwujh8veU-11" value="BACKEND" style="text;html=1;align=center;verticalAlign=middle;resizable=0;points=[];autosize=1;strokeColor=none;fillColor=none;" parent="1" vertex="1">
          <mxGeometry x="340" y="110" width="80" height="30" as="geometry" />
        </mxCell>
        <mxCell id="y_4wTvDyR4iK40Hrocq_-5" style="edgeStyle=orthogonalEdgeStyle;rounded=0;orthogonalLoop=1;jettySize=auto;html=1;exitX=0.5;exitY=1;exitDx=0;exitDy=0;" parent="1" source="y_4wTvDyR4iK40Hrocq_-1" target="y_4wTvDyR4iK40Hrocq_-4" edge="1">
          <mxGeometry relative="1" as="geometry" />
        </mxCell>
        <mxCell id="y_4wTvDyR4iK40Hrocq_-1" value="Usuário fez pagamento com sucesso" style="rounded=0;whiteSpace=wrap;html=1;" parent="1" vertex="1">
          <mxGeometry x="250" y="300" width="120" height="60" as="geometry" />
        </mxCell>
        <mxCell id="y_4wTvDyR4iK40Hrocq_-3" value="STRIPE" style="text;html=1;align=center;verticalAlign=middle;resizable=0;points=[];autosize=1;strokeColor=none;fillColor=none;" parent="1" vertex="1">
          <mxGeometry x="375" y="250" width="70" height="30" as="geometry" />
        </mxCell>
        <mxCell id="y_4wTvDyR4iK40Hrocq_-7" style="edgeStyle=orthogonalEdgeStyle;rounded=0;orthogonalLoop=1;jettySize=auto;html=1;exitX=1;exitY=0.5;exitDx=0;exitDy=0;" parent="1" source="y_4wTvDyR4iK40Hrocq_-4" target="y_4wTvDyR4iK40Hrocq_-6" edge="1">
          <mxGeometry relative="1" as="geometry" />
        </mxCell>
        <mxCell id="y_4wTvDyR4iK40Hrocq_-4" value="Webhook" style="rounded=0;whiteSpace=wrap;html=1;" parent="1" vertex="1">
          <mxGeometry x="250" y="450" width="120" height="60" as="geometry" />
        </mxCell>
        <mxCell id="B9EycE3TnMZhSxqyNdZg-4" style="edgeStyle=orthogonalEdgeStyle;rounded=0;orthogonalLoop=1;jettySize=auto;html=1;exitX=1;exitY=0.5;exitDx=0;exitDy=0;entryX=-0.007;entryY=0.574;entryDx=0;entryDy=0;entryPerimeter=0;" edge="1" parent="1" source="y_4wTvDyR4iK40Hrocq_-6" target="B9EycE3TnMZhSxqyNdZg-1">
          <mxGeometry relative="1" as="geometry" />
        </mxCell>
        <mxCell id="B9EycE3TnMZhSxqyNdZg-5" value="Criar pedido" style="edgeLabel;html=1;align=center;verticalAlign=middle;resizable=0;points=[];" vertex="1" connectable="0" parent="B9EycE3TnMZhSxqyNdZg-4">
          <mxGeometry x="0.0727" y="1" relative="1" as="geometry">
            <mxPoint as="offset" />
          </mxGeometry>
        </mxCell>
        <mxCell id="y_4wTvDyR4iK40Hrocq_-6" value="localhost:300/&lt;br&gt;payment-sucess" style="rounded=0;whiteSpace=wrap;html=1;" parent="1" vertex="1">
          <mxGeometry x="470" y="450" width="120" height="60" as="geometry" />
        </mxCell>
        <mxCell id="y_4wTvDyR4iK40Hrocq_-10" style="edgeStyle=orthogonalEdgeStyle;rounded=0;orthogonalLoop=1;jettySize=auto;html=1;exitX=1;exitY=0.5;exitDx=0;exitDy=0;entryX=-0.001;entryY=0.2;entryDx=0;entryDy=0;entryPerimeter=0;" parent="1" source="CmVPIzVfPxpFwujh8veU-9" target="y_4wTvDyR4iK40Hrocq_-9" edge="1">
          <mxGeometry relative="1" as="geometry" />
        </mxCell>
        <mxCell id="B9EycE3TnMZhSxqyNdZg-1" value="DB" style="shape=cylinder3;whiteSpace=wrap;html=1;boundedLbl=1;backgroundOutline=1;size=15;" vertex="1" parent="1">
          <mxGeometry x="730" y="425" width="70" height="95" as="geometry" />
        </mxCell>
      </root>
    </mxGraphModel>
  </diagram>
</mxfile>
